<?xml version="1.0" standalone="no"?>
<!DOCTYPE svg PUBLIC "-//W3C//DTD SVG 20010904//EN"
 "http://www.w3.org/TR/2001/REC-SVG-20010904/DTD/svg10.dtd">
<svg version="1.0" xmlns="http://www.w3.org/2000/svg"
 width="1667.000000pt" height="1667.000000pt" viewBox="0 0 1667.000000 1667.000000"
 preserveAspectRatio="xMidYMid meet">
<metadata>
Created by potrace 1.14, written by Peter Selinger 2001-2017
</metadata>
<g transform="translate(0.000000,1667.000000) scale(0.100000,-0.100000)"
fill="#000000" stroke="none">
<path d="M8038 16665 c-2 -2 -59 -6 -128 -9 -128 -7 -230 -14 -310 -21 -151
-15 -176 -17 -190 -20 -8 -2 -44 -6 -80 -10 -36 -3 -108 -13 -160 -20 -52 -8
-113 -17 -135 -20 -45 -7 -73 -12 -300 -56 -639 -123 -1335 -350 -1900 -619
-71 -34 -152 -73 -180 -85 -50 -24 -334 -175 -430 -230 -191 -108 -586 -359
-593 -377 -2 -4 -8 -8 -13 -8 -28 0 -512 -374 -750 -580 -125 -108 -555 -529
-665 -650 -126 -140 -240 -273 -371 -434 -253 -311 -562 -776 -798 -1201 -43
-77 -207 -402 -242 -480 -112 -246 -174 -394 -258 -620 -55 -149 -168 -487
-180 -541 -2 -10 -16 -59 -30 -109 -14 -49 -28 -101 -31 -115 -2 -14 -9 -36
-14 -50 -16 -43 -103 -445 -126 -580 -3 -14 -9 -47 -14 -75 -5 -27 -12 -68
-15 -90 -3 -23 -7 -50 -9 -60 -9 -48 -24 -159 -30 -220 -2 -22 -7 -56 -10 -75
-6 -42 -13 -109 -22 -215 -3 -44 -8 -96 -10 -115 -26 -248 -26 -1038 1 -1300
2 -19 6 -71 10 -115 3 -44 8 -93 10 -110 2 -16 6 -59 10 -95 3 -36 8 -76 10
-90 2 -14 7 -50 10 -80 4 -30 20 -134 37 -230 16 -96 32 -188 34 -205 32 -192
159 -685 245 -950 28 -88 55 -175 61 -193 19 -67 141 -383 214 -553 96 -227
290 -616 409 -824 179 -312 378 -620 549 -850 85 -115 260 -336 288 -366 7 -8
35 -41 63 -74 27 -33 54 -65 60 -71 5 -6 39 -44 75 -85 133 -150 407 -430 562
-574 575 -534 1229 -985 1948 -1343 129 -65 318 -153 420 -196 102 -43 194
-82 205 -87 260 -114 955 -328 1275 -393 118 -24 382 -75 410 -80 19 -3 64
-10 100 -16 65 -10 181 -26 255 -36 103 -13 158 -19 280 -30 39 -4 84 -8 100
-10 281 -26 1098 -26 1345 1 19 2 67 7 105 10 39 3 86 8 105 10 19 3 60 7 90
10 30 3 66 8 80 10 14 2 49 7 79 10 30 4 61 8 70 10 17 3 84 13 136 21 17 2
93 16 170 30 77 14 151 28 165 30 14 3 32 7 40 9 8 2 29 7 45 10 17 3 86 19
155 35 69 17 134 33 145 35 86 19 386 107 585 172 183 59 580 214 759 295 109
50 474 232 566 282 55 31 107 59 115 63 138 69 562 339 780 497 182 131 547
419 590 466 3 3 41 37 85 75 246 216 587 565 800 820 28 32 57 66 65 75 81 83
368 466 522 696 96 143 143 219 275 439 7 11 17 30 22 42 6 12 21 39 34 60 67
106 256 476 342 667 105 236 275 666 290 736 2 8 11 35 20 60 32 90 145 475
170 580 2 8 12 51 24 95 18 72 63 275 75 339 28 148 28 149 46 254 13 78 18
110 25 162 3 25 10 77 15 115 5 39 12 97 15 130 3 33 8 76 10 95 2 19 8 67 12
105 4 39 8 372 8 740 0 582 -4 779 -20 877 -2 13 -6 52 -10 88 -6 67 -12 113
-20 165 -3 17 -8 52 -11 80 -3 27 -7 52 -9 55 -2 3 -6 34 -10 70 -4 36 -8 67
-10 70 -2 3 -6 24 -9 46 -7 42 -10 58 -26 139 -5 28 -11 61 -14 75 -3 20 -37
178 -51 240 -18 80 -93 366 -117 445 -17 55 -31 105 -32 110 -7 36 -100 307
-167 490 -29 77 -34 91 -57 145 -6 14 -37 90 -70 170 -230 553 -567 1150 -936
1655 -28 39 -54 75 -59 80 -4 6 -43 56 -87 113 -43 56 -89 115 -102 131 -13
15 -36 45 -53 66 -16 21 -34 43 -40 49 -5 6 -37 43 -70 81 -33 39 -64 75 -70
81 -5 6 -37 41 -70 79 -88 100 -496 509 -595 596 -47 41 -87 76 -90 80 -8 8
-211 181 -255 216 -22 17 -65 52 -95 76 -70 56 -354 265 -457 336 -99 69 -378
246 -463 295 -36 20 -72 41 -80 46 -50 33 -282 156 -440 235 -534 267 -1132
488 -1675 621 -138 34 -391 90 -445 100 -25 4 -47 8 -50 9 -3 1 -25 4 -50 9
-25 4 -65 11 -90 16 -67 13 -180 30 -220 34 -19 2 -49 6 -65 9 -17 3 -57 9
-90 12 -33 4 -73 8 -90 10 -16 2 -59 6 -95 10 -36 3 -81 8 -100 10 -19 2 -78
7 -130 10 -52 3 -117 8 -145 11 -48 5 -782 13 -787 9z"/>
</g>
</svg>
